<svg width="40" height="40" viewBox="0 0 40 40" fill="none" xmlns="http://www.w3.org/2000/svg">
<circle cx="20" cy="20" r="20" fill="#D9D9D9"/>
<path d="M15.0939 13.45C15.0939 15.725 16.9502 17.5812 19.2314 17.5812C21.5127 17.5812 23.3689 15.725 23.3689 13.45C23.3689 11.1687 21.5127 9.3125 19.2314 9.3125C16.9502 9.3125 15.0939 11.1687 15.0939 13.45ZM12.0439 25.25V26.5C12.0439 27.7062 13.0252 28.6875 14.2314 28.6875H24.2314C25.4377 28.6875 26.4189 27.7062 26.4189 26.5V25.25C26.4189 21.2875 23.1939 18.0625 19.2314 18.0625C15.2689 18.0625 12.0439 21.2875 12.0439 25.25ZM28.0083 18.5931V17.5825H29.0183C29.267 17.5825 29.5054 17.4837 29.6812 17.3079C29.857 17.1321 29.9558 16.8936 29.9558 16.645C29.9558 16.3964 29.857 16.1579 29.6812 15.9821C29.5054 15.8063 29.267 15.7075 29.0183 15.7075H28.0083V14.6975C28.0083 14.4489 27.9095 14.2104 27.7337 14.0346C27.5579 13.8588 27.3195 13.76 27.0708 13.76C26.8222 13.76 26.5837 13.8588 26.4079 14.0346C26.2321 14.2104 26.1333 14.4489 26.1333 14.6975V15.7075H25.1239C24.8753 15.7075 24.6368 15.8063 24.461 15.9821C24.2852 16.1579 24.1864 16.3964 24.1864 16.645C24.1864 16.8936 24.2852 17.1321 24.461 17.3079C24.6368 17.4837 24.8753 17.5825 25.1239 17.5825H26.1333V18.5931C26.1333 18.8418 26.2321 19.0802 26.4079 19.256C26.5837 19.4319 26.8222 19.5306 27.0708 19.5306C27.3195 19.5306 27.5579 19.4319 27.7337 19.256C27.9095 19.0802 28.0083 18.8418 28.0083 18.5931Z" fill="#0094FF"/>
</svg>
