<svg width="82" height="82" viewBox="0 0 82 82" fill="none" xmlns="http://www.w3.org/2000/svg">
<g id="Handshake-Deal-3--Streamline-Ux.svg">
<path id="Vector" d="M2.8374 41.0001C2.8374 69.9907 34.2205 88.1097 59.3272 73.6145C70.9791 66.8872 78.157 54.4546 78.157 41.0001C78.157 12.0096 46.7738 -6.10957 21.6673 8.38569C10.0153 15.113 2.8374 27.5455 2.8374 41.0001Z" fill="#03045E" stroke="#03045E" stroke-width="0.82"/>
<path id="Vector_2" d="M17.2346 13.8852L27.7793 24.43C28.3332 24.9837 28.3332 25.8816 27.7793 26.4354L14.2435 39.9694C13.6897 40.5232 12.7918 40.5232 12.2381 39.9694L1.69238 29.4199L17.2346 13.8852Z" fill="#009FD9"/>
<path id="Vector_3" d="M14.7324 16.3876L26.277 27.9359L27.7834 26.4296C28.3373 25.8758 28.3373 24.9779 27.7834 24.4242L17.2387 13.8795L14.7324 16.3876Z" fill="#00B8F0"/>
<path id="Vector_4" d="M17.2346 13.8852L27.7793 24.43C28.3332 24.9837 28.3332 25.8816 27.7793 26.4354L14.2435 39.9694C13.6897 40.5232 12.7918 40.5232 12.2381 39.9694L1.69238 29.4199" stroke="#45413C" stroke-width="0.82" stroke-linecap="round" stroke-linejoin="round"/>
<path id="Vector_5" d="M14.2437 39.9692L16.4948 42.2194C16.9133 42.6382 17.5921 42.6382 18.0106 42.2194L30.0316 30.1983C30.4504 29.7798 30.4504 29.101 30.0316 28.6825L27.7814 26.4324L14.2437 39.9692Z" fill="white" stroke="#45413C" stroke-width="0.82" stroke-linecap="round" stroke-linejoin="round"/>
<path id="Vector_6" d="M29.7711 30.4556C33.7366 34.054 37.5121 29.725 41.2874 34.8533C42.2619 36.1714 39.9176 34.747 41.4061 37.9847L57.5565 53.2106C59.1246 54.7303 58.4595 57.3778 56.3593 57.9759C55.3538 58.2623 54.2722 57.9723 53.5448 57.2214L53.4506 57.1272C54.9889 58.6772 54.2724 61.3111 52.161 61.8683C51.1885 62.1249 50.1528 61.8474 49.439 61.1389L48.4381 60.1325C49.9819 61.6762 49.2755 64.3122 47.1667 64.8772C46.188 65.1395 45.1438 64.8597 44.4273 64.1432L43.4199 63.1406C44.9637 64.6843 44.2574 67.3203 42.1486 67.8854C41.1699 68.1476 40.1257 67.8678 39.4092 67.1513L30.721 58.4632C25.5551 53.2972 26.6547 50.3861 23.7012 47.4326L18.25 41.9814L29.7711 30.4556Z" fill="#FFDB94" stroke="#45413C" stroke-width="0.82" stroke-linecap="round" stroke-linejoin="round"/>
<path id="Vector_7" d="M64.7652 14.0119L54.3504 24.4296C53.7966 24.9833 53.7966 25.8811 54.3504 26.435L67.8873 39.969C68.4416 40.5224 69.3393 40.5224 69.8936 39.969L80.3075 29.555L64.7652 14.0119Z" fill="#009FD9"/>
<path id="Vector_8" d="M67.2677 16.521L55.8548 27.9357L54.3485 26.4293C53.7947 25.8755 53.7947 24.9776 54.3485 24.4239L64.7652 14.0119L67.2677 16.521Z" fill="#00B8F0"/>
<path id="Vector_9" d="M64.7652 14.0119L54.3504 24.4296C53.7966 24.9833 53.7966 25.8811 54.3504 26.435L67.8873 39.969C68.4416 40.5224 69.3393 40.5224 69.8936 39.969L80.3075 29.555" stroke="#45413C" stroke-width="0.82" stroke-linecap="round" stroke-linejoin="round"/>
<path id="Vector_10" d="M67.8872 39.9692L65.6371 42.2194C65.2186 42.6382 64.5398 42.6382 64.1213 42.2194L52.1002 30.1983C51.6814 29.7798 51.6814 29.101 52.1002 28.6825L54.3504 26.4324L67.8872 39.9692Z" fill="white" stroke="#45413C" stroke-width="0.82" stroke-linecap="round" stroke-linejoin="round"/>
<path id="Vector_11" d="M63.949 41.9316C63.949 42.6406 52.5757 30.6158 52.5757 30.6158L50.962 31.353C49.3063 32.109 47.4539 32.3219 45.6698 31.9612L45.6341 31.9536C43.7034 31.563 41.6971 31.8454 39.9493 32.7539L33.2911 36.2148C31.3571 37.2295 31.2467 39.9573 33.0925 41.1249C33.9491 41.6668 35.0296 41.7106 35.9273 41.2396L41.6045 38.176L55.0679 50.8608L63.949 41.9316Z" fill="#FFDB94"/>
<path id="Vector_12" d="M63.9291 41.9951L63.977 41.947C63.977 41.9828 63.9291 41.965 63.8726 41.9376L63.9291 41.9951Z" fill="#FFDCD1"/>
<path id="Vector_13" d="M34.9832 39.3124L41.6414 35.8515C43.3892 34.9429 45.3955 34.6605 47.3262 35.0512L47.3619 35.0587C49.146 35.4203 50.9986 35.2074 52.6541 34.4505L54.9787 33.1372C53.5796 31.6796 52.5807 30.6158 52.5807 30.6158L50.967 31.353C49.3112 32.109 47.4589 32.3219 45.6748 31.9612L45.6391 31.9536C43.7084 31.563 41.7021 31.8454 39.9543 32.7539L33.296 36.2148C31.367 37.2182 31.2477 39.9335 33.0812 41.1023C33.2214 41.1917 33.3692 41.2685 33.5229 41.3319C33.6703 40.4688 34.2098 39.7228 34.9832 39.3124Z" fill="#FFE9BD"/>
<path id="Vector_14" d="M63.949 41.9316C63.949 42.6406 52.5757 30.6158 52.5757 30.6158L50.962 31.353C49.3063 32.109 47.4539 32.3219 45.6698 31.9612L45.6341 31.9536C43.7034 31.563 41.6971 31.8454 39.9493 32.7539L33.2911 36.2148C31.3571 37.2295 31.2467 39.9573 33.0925 41.1249C33.9491 41.6668 35.0296 41.7106 35.9273 41.2396L41.6045 38.176L55.0679 50.8608L63.949 41.9316Z" stroke="#45413C" stroke-width="0.82" stroke-linejoin="round"/>
<path id="Vector_15" d="M27.4019 47.973C28.4562 49.1312 28.3719 50.9248 27.2137 51.9791L24.7234 54.2471C23.0903 55.6969 20.5003 54.835 20.0614 52.6959C19.8627 51.7278 20.1822 50.7261 20.9047 50.0518L23.394 47.7846C24.5525 46.7291 26.3476 46.8135 27.4019 47.973Z" fill="#FFDB94" stroke="#45413C" stroke-width="0.82"/>
<path id="Vector_16" d="M34.8662 56.5348C35.9206 57.6933 35.8363 59.4872 34.6779 60.5417L31.9249 63.0471C30.3106 64.5165 27.7108 63.6873 27.2454 61.5544C27.0295 60.5646 27.358 59.5347 28.1072 58.8527L30.8592 56.3464C32.0177 55.2921 33.8116 55.3764 34.8662 56.5348Z" fill="#FFDB94" stroke="#45413C" stroke-width="0.82"/>
<path id="Vector_17" d="M38.5691 60.9298C39.6235 62.0883 39.5392 63.8822 38.3808 64.9368L37.2012 66.0101C35.5867 67.4799 32.9866 66.6509 32.5209 64.5179C32.3048 63.5279 32.6332 62.4979 33.3825 61.8157L34.5621 60.7415C35.7207 59.6871 37.5146 59.7714 38.5691 60.9298Z" fill="#FFDB94" stroke="#45413C" stroke-width="0.82"/>
<path id="Vector_18" d="M31.2822 52.134C32.3365 53.2921 32.2522 55.0857 31.0939 56.14L27.2922 59.6009C25.677 61.0707 23.0764 60.2409 22.6111 58.1073C22.3952 57.117 22.7239 56.0869 23.4735 55.4047L27.2752 51.9437C28.4342 50.8899 30.2281 50.9749 31.2822 52.134Z" fill="#FFDB94" stroke="#45413C" stroke-width="0.82"/>
<g id="Vector_19">
<path d="M46.2607 57.959L48.4327 60.1319L46.2607 57.959Z" fill="#FFCEBF"/>
<path d="M46.2607 57.959L48.4327 60.1319" stroke="#45413C" stroke-width="0.82" stroke-linecap="round" stroke-linejoin="round"/>
</g>
<g id="Vector_20">
<path d="M50.4395 54.1152L53.9484 57.6251L50.4395 54.1152Z" fill="#FFCEBF"/>
<path d="M50.4395 54.1152L53.9484 57.6251" stroke="#45413C" stroke-width="0.82" stroke-linecap="round" stroke-linejoin="round"/>
</g>
<g id="Vector_21">
<path d="M42.2495 61.9697L44.4225 64.1426L42.2495 61.9697Z" fill="#FFCEBF"/>
<path d="M42.2495 61.9697L44.4225 64.1426" stroke="#45413C" stroke-width="0.82" stroke-linecap="round" stroke-linejoin="round"/>
</g>
</g>
</svg>
