<svg width="50" height="50" viewBox="0 0 50 50" fill="none" xmlns="http://www.w3.org/2000/svg">
<path d="M26.4731 34.8063L34.8064 26.4729C35.195 26.0812 35.413 25.5518 35.413 25C35.413 24.4483 35.195 23.9189 34.8064 23.5271L26.4731 15.1938C26.0802 14.8143 25.5539 14.6043 25.0077 14.609C24.4614 14.6138 23.9389 14.8329 23.5526 15.2191C23.1664 15.6054 22.9473 16.1279 22.9425 16.6742C22.9378 17.2204 23.1478 17.7467 23.5272 18.1396L28.3043 22.9167H16.6668C16.1143 22.9167 15.5844 23.1362 15.1937 23.5269C14.803 23.9176 14.5835 24.4475 14.5835 25C14.5835 25.5525 14.803 26.0825 15.1937 26.4732C15.5844 26.8639 16.1143 27.0833 16.6668 27.0833H28.3043L23.5272 31.8604C23.1478 32.2534 22.9378 32.7796 22.9425 33.3258C22.9473 33.8721 23.1664 34.3946 23.5526 34.7809C23.9389 35.1672 24.4614 35.3863 25.0077 35.391C25.5539 35.3957 26.0802 35.1858 26.4731 34.8063Z" fill="#6563FF"/>
<path d="M45.8332 25C45.8332 20.8796 44.6113 16.8516 42.3221 13.4256C40.0329 9.9996 36.7792 7.32933 32.9724 5.75251C29.1656 4.17568 24.9767 3.76311 20.9355 4.56697C16.8942 5.37083 13.1821 7.35501 10.2685 10.2686C7.35486 13.1822 5.37068 16.8943 4.56682 20.9356C3.76296 24.9769 4.17553 29.1658 5.75236 32.9726C7.32918 36.7794 9.99944 40.0331 13.4255 42.3223C16.8515 44.6115 20.8794 45.8333 24.9998 45.8333C30.5233 45.8273 35.8188 43.6304 39.7245 39.7247C43.6302 35.819 45.8271 30.5235 45.8332 25ZM23.5269 34.8063C23.1364 34.4156 22.917 33.8858 22.917 33.3333C22.917 32.7809 23.1364 32.2511 23.5269 31.8604L28.304 27.0833H16.6665C16.114 27.0833 15.5841 26.8638 15.1934 26.4731C14.8027 26.0824 14.5832 25.5525 14.5832 25C14.5832 24.4475 14.8027 23.9176 15.1934 23.5269C15.5841 23.1362 16.114 22.9167 16.6665 22.9167H28.304L23.5269 18.1396C23.1474 17.7467 22.9374 17.2204 22.9422 16.6742C22.9469 16.1279 23.166 15.6054 23.5523 15.2191C23.9386 14.8329 24.4611 14.6138 25.0073 14.609C25.5536 14.6043 26.0798 14.8143 26.4728 15.1938L34.8061 23.5271C35.1946 23.9188 35.4126 24.4482 35.4126 25C35.4126 25.5518 35.1946 26.0812 34.8061 26.4729L26.4728 34.8063C26.0821 35.1968 25.5523 35.4162 24.9998 35.4162C24.4474 35.4162 23.9176 35.1968 23.5269 34.8063Z" fill="#B2B1FF"/>
</svg>
