<svg width="50" height="50" viewBox="0 0 50 50" fill="none" xmlns="http://www.w3.org/2000/svg">
<path d="M23.5273 15.1938L15.1939 23.5271C14.8054 23.9189 14.5874 24.4483 14.5874 25C14.5874 25.5518 14.8054 26.0812 15.1939 26.4729L23.5273 34.8063C23.9202 35.1858 24.4465 35.3957 24.9927 35.391C25.5389 35.3863 26.0615 35.1672 26.4477 34.7809C26.834 34.3946 27.0531 33.8721 27.0579 33.3258C27.0626 32.7796 26.8526 32.2534 26.4731 31.8604L21.696 27.0833H33.3335C33.8861 27.0833 34.416 26.8639 34.8067 26.4732C35.1974 26.0825 35.4169 25.5525 35.4169 25C35.4169 24.4475 35.1974 23.9176 34.8067 23.5269C34.416 23.1362 33.8861 22.9167 33.3335 22.9167H21.696L26.4731 18.1396C26.8526 17.7467 27.0626 17.2204 27.0579 16.6742C27.0531 16.1279 26.834 15.6054 26.4477 15.2191C26.0615 14.8329 25.5389 14.6138 24.9927 14.609C24.4465 14.6043 23.9202 14.8143 23.5273 15.1938Z" fill="#6563FF"/>
<path d="M4.1665 25C4.1665 29.1204 5.38836 33.1483 7.67755 36.5744C9.96675 40.0004 13.2205 42.6707 17.0273 44.2475C20.8341 45.8243 25.0229 46.2369 29.0642 45.433C33.1055 44.6292 36.8176 42.645 39.7312 39.7314C42.6448 36.8178 44.629 33.1056 45.4329 29.0644C46.2367 25.0231 45.8242 20.8342 44.2473 17.0274C42.6705 13.2206 40.0002 9.9669 36.5742 7.67771C33.1482 5.38851 29.1203 4.16666 24.9998 4.16666C19.4764 4.17272 14.1808 6.3696 10.2751 10.2753C6.36945 14.181 4.17257 19.4765 4.1665 25ZM26.4728 15.1937C26.8633 15.5844 27.0827 16.1142 27.0827 16.6667C27.0827 17.2191 26.8633 17.7489 26.4728 18.1396L21.6957 22.9167H33.3332C33.8857 22.9167 34.4156 23.1361 34.8063 23.5269C35.197 23.9176 35.4165 24.4475 35.4165 25C35.4165 25.5525 35.197 26.0824 34.8063 26.4731C34.4156 26.8638 33.8857 27.0833 33.3332 27.0833H21.6957L26.4728 31.8604C26.8522 32.2533 27.0622 32.7796 27.0575 33.3258C27.0527 33.8721 26.8336 34.3946 26.4474 34.7809C26.0611 35.1671 25.5386 35.3862 24.9923 35.391C24.4461 35.3957 23.9198 35.1857 23.5269 34.8062L15.1936 26.4729C14.8051 26.0811 14.587 25.5517 14.587 25C14.587 24.4482 14.8051 23.9188 15.1936 23.5271L23.5269 15.1937C23.9176 14.8032 24.4474 14.5838 24.9998 14.5838C25.5523 14.5838 26.0821 14.8032 26.4728 15.1937Z" fill="#B2B1FF"/>
</svg>
