<svg width="22" height="22" viewBox="0 0 22 22" fill="none" xmlns="http://www.w3.org/2000/svg">
<path d="M16.893 1.57129C17.8669 1.57129 18.6997 1.91709 19.3913 2.60868C20.0829 3.30027 20.4287 4.13304 20.4287 5.107V16.8927C20.4287 17.8667 20.0829 18.6994 19.3913 19.391C18.6997 20.0826 17.8669 20.4284 16.893 20.4284H14.5849V13.1237H17.028L17.3963 10.2755H14.5849V8.45857C14.5849 8.00023 14.6811 7.65648 14.8734 7.42732C15.0658 7.19815 15.4402 7.08357 15.9968 7.08357L17.4945 7.07129V4.52999C16.9789 4.45633 16.2505 4.4195 15.3093 4.4195C14.1962 4.4195 13.3061 4.74688 12.6391 5.40165C11.972 6.05641 11.6385 6.98126 11.6385 8.1762V10.2755H9.18314V13.1237H11.6385V20.4284H5.10725C4.13329 20.4284 3.30051 20.0826 2.60892 19.391C1.91733 18.6994 1.57153 17.8667 1.57153 16.8927V5.107C1.57153 4.13304 1.91733 3.30027 2.60892 2.60868C3.30051 1.91709 4.13329 1.57129 5.10725 1.57129H16.893Z" fill="black"/>
</svg>
