<svg width="22" height="18" viewBox="0 0 22 18" fill="none" xmlns="http://www.w3.org/2000/svg">
<g id="Frame 1">
<path id="Vector" fill-rule="evenodd" clip-rule="evenodd" d="M0 8.8C0 8.46665 0.14485 8.14694 0.402683 7.91123C0.660517 7.67551 1.01021 7.54308 1.37485 7.54308H17.3038L11.4002 2.1484C11.1421 1.91239 10.997 1.59228 10.997 1.2585C10.997 0.924728 11.1421 0.604623 11.4002 0.368608C11.6584 0.132592 12.0085 0 12.3736 0C12.7387 0 13.0888 0.132592 13.347 0.368608L21.5961 7.9101C21.7241 8.02686 21.8257 8.16556 21.895 8.31827C21.9643 8.47097 22 8.63467 22 8.8C22 8.96533 21.9643 9.12903 21.895 9.28173C21.8257 9.43444 21.7241 9.57314 21.5961 9.6899L13.347 17.2314C13.0888 17.4674 12.7387 17.6 12.3736 17.6C12.0085 17.6 11.6584 17.4674 11.4002 17.2314C11.1421 16.9954 10.997 16.6753 10.997 16.3415C10.997 16.0077 11.1421 15.6876 11.4002 15.4516L17.3038 10.0569H1.37485C1.01021 10.0569 0.660517 9.92449 0.402683 9.68878C0.14485 9.45306 0 9.13336 0 8.8Z" fill="white"/>
</g>
</svg>
