<svg width="111" height="111" viewBox="0 0 111 111" fill="none" xmlns="http://www.w3.org/2000/svg">
<path d="M51.6246 73.458C51.3898 73.7174 51.1711 73.9908 50.9696 74.2768C50.763 74.581 50.5978 74.9114 50.4783 75.2593C50.3209 75.5687 50.2106 75.8998 50.1508 76.2418C50.124 76.6052 50.124 76.97 50.1508 77.3334C50.1324 78.0494 50.2819 78.7598 50.5875 79.4076C50.8326 80.0849 51.2237 80.7001 51.7331 81.2095C52.2425 81.7188 52.8576 82.1099 53.535 82.3551C54.1884 82.6439 54.8948 82.793 55.6092 82.793C56.3235 82.793 57.03 82.6439 57.6833 82.3551C58.3607 82.1099 58.9758 81.7188 59.4852 81.2095C59.9946 80.7001 60.3857 80.0849 60.6308 79.4076C60.8732 78.7439 60.9844 78.0395 60.9583 77.3334C60.9625 76.6151 60.8248 75.903 60.5532 75.2379C60.2815 74.5729 59.8813 73.968 59.3754 73.458C58.868 72.9464 58.2643 72.5403 57.5991 72.2632C56.934 71.9861 56.2206 71.8434 55.5 71.8434C54.7794 71.8434 54.066 71.9861 53.4008 72.2632C52.7357 72.5403 52.132 72.9464 51.6246 73.458ZM55.5 0.916748C44.7044 0.916748 34.1513 4.11801 25.1751 10.1157C16.1989 16.1134 9.20284 24.6381 5.07156 34.6119C0.940276 44.5857 -0.140656 55.5606 1.96545 66.1488C4.07156 76.7369 9.27012 86.4627 16.9037 94.0963C24.5374 101.73 34.2632 106.929 44.8513 109.035C55.4394 111.141 66.4143 110.06 76.3881 105.929C86.3619 101.797 94.8867 94.8011 100.884 85.825C106.882 76.8488 110.083 66.2957 110.083 55.5001C110.083 48.3321 108.671 41.2343 105.928 34.6119C103.185 27.9896 99.1648 21.9724 94.0962 16.9038C89.0277 11.8353 83.0105 7.81473 76.3881 5.07166C69.7658 2.32859 62.668 0.916748 55.5 0.916748ZM55.5 99.1668C46.8635 99.1668 38.421 96.6058 31.2401 91.8076C24.0591 87.0094 18.4623 80.1896 15.1572 72.2106C11.8522 64.2316 10.9875 55.4516 12.6724 46.9811C14.3572 38.5106 18.5161 30.73 24.623 24.6231C30.7299 18.5162 38.5105 14.3573 46.981 12.6725C55.4515 10.9876 64.2315 11.8523 72.2105 15.1573C80.1895 18.4624 87.0093 24.0592 91.8075 31.2402C96.6056 38.4211 99.1666 46.8636 99.1666 55.5001C99.1666 67.0812 94.5661 78.188 86.377 86.3771C78.1879 94.5662 67.0811 99.1668 55.5 99.1668ZM55.5 28.2084C52.6238 28.2066 49.7978 28.9623 47.3065 30.3996C44.8152 31.8369 42.7464 33.9051 41.3083 36.3959C40.9134 37.0172 40.6482 37.7119 40.5287 38.4383C40.4093 39.1647 40.4379 39.9078 40.6131 40.6228C40.7882 41.3378 41.1062 42.01 41.5479 42.599C41.9895 43.1879 42.5458 43.6814 43.1831 44.0498C43.8204 44.4182 44.5257 44.6539 45.2565 44.7427C45.9873 44.8315 46.7285 44.7715 47.4355 44.5664C48.1425 44.3613 48.8007 44.0153 49.3705 43.5492C49.9404 43.0831 50.41 42.5066 50.7512 41.8543C51.2321 41.0213 51.9246 40.3302 52.7585 39.8509C53.5924 39.3717 54.5382 39.1213 55.5 39.1251C56.9476 39.1251 58.336 39.7002 59.3596 40.7238C60.3832 41.7474 60.9583 43.1358 60.9583 44.5834C60.9583 46.0311 60.3832 47.4194 59.3596 48.443C58.336 49.4667 56.9476 50.0418 55.5 50.0418C54.0523 50.0418 52.664 50.6168 51.6404 51.6405C50.6167 52.6641 50.0417 54.0524 50.0417 55.5001V60.9584C50.0417 62.4061 50.6167 63.7944 51.6404 64.818C52.664 65.8417 54.0523 66.4168 55.5 66.4168C56.9476 66.4168 58.336 65.8417 59.3596 64.818C60.3832 63.7944 60.9583 62.4061 60.9583 60.9584V59.9759C64.5683 58.666 67.6031 56.129 69.5321 52.8084C71.4612 49.4878 72.1618 45.5948 71.5115 41.81C70.8611 38.0252 68.9013 34.5893 65.9745 32.103C63.0477 29.6167 59.3402 28.2382 55.5 28.2084Z" fill="black"/>
</svg>
