<svg width="50" height="50" viewBox="0 0 50 50" fill="none" xmlns="http://www.w3.org/2000/svg">
<path fill-rule="evenodd" clip-rule="evenodd" d="M13.1637 2.64767C7.10146 2.64767 2.18701 7.56213 2.18701 13.6244V36.5779C2.18701 42.6402 7.10146 47.5546 13.1637 47.5546H36.1172C42.1795 47.5546 47.0939 42.6402 47.0939 36.5779V13.6244C47.0939 7.56213 42.1795 2.64767 36.1172 2.64767H13.1637ZM1.18701 13.6244C1.18701 7.00984 6.54918 1.64767 13.1637 1.64767H36.1172C42.7318 1.64767 48.0939 7.00984 48.0939 13.6244V36.5779C48.0939 43.1924 42.7318 48.5546 36.1172 48.5546H13.1637C6.54918 48.5546 1.18701 43.1924 1.18701 36.5779V13.6244ZM26.0132 16.4139C24.2069 16.1461 22.3622 16.4546 20.7414 17.2956C19.1206 18.1366 17.8062 19.4673 16.9853 21.0983C16.1643 22.7294 15.8786 24.5778 16.1687 26.3806C16.4588 28.1834 17.3099 29.8489 18.6011 31.1401C19.8923 32.4313 21.5577 33.2824 23.3606 33.5725C25.1634 33.8626 27.0118 33.5769 28.6428 32.7559C30.2739 31.935 31.6046 30.6206 32.4456 28.9998C33.2866 27.379 33.5951 25.5342 33.3273 23.728C33.0541 21.8855 32.1955 20.1798 30.8785 18.8627C29.5614 17.5457 27.8557 16.6871 26.0132 16.4139ZM20.2808 16.408C22.0883 15.4701 24.1456 15.126 26.1599 15.4247C28.2146 15.7294 30.1168 16.6869 31.5856 18.1556C33.0543 19.6244 34.0118 21.5266 34.3165 23.5813C34.6152 25.5956 34.2711 27.6528 33.3332 29.4604C32.3953 31.2679 30.9114 32.7336 29.0924 33.6492C27.2735 34.5647 25.2122 34.8833 23.2017 34.5598C21.1912 34.2363 19.3339 33.2871 17.894 31.8472C16.4541 30.4073 15.5049 28.55 15.1814 26.5395C14.8578 24.529 15.1765 22.4677 16.092 20.6487C17.0076 18.8298 18.4733 17.3459 20.2808 16.408ZM37.2649 11.9767C36.9888 11.9767 36.7649 12.2006 36.7649 12.4767C36.7649 12.7529 36.9888 12.9767 37.2649 12.9767H37.2868C37.5629 12.9767 37.7868 12.7529 37.7868 12.4767C37.7868 12.2006 37.5629 11.9767 37.2868 11.9767H37.2649Z" fill="white"/>
<path d="M26.0132 16.4139L26.1599 15.4247L26.0132 16.4139ZM16.9853 21.0983L17.8785 21.5479L16.9853 21.0983ZM16.1687 26.3806L17.156 26.2217V26.2217L16.1687 26.3806ZM23.3606 33.5725L23.2017 34.5598H23.2017L23.3606 33.5725ZM28.6428 32.7559L29.0924 33.6492H29.0924L28.6428 32.7559ZM33.3273 23.728L34.3165 23.5813L33.3273 23.728ZM30.8785 18.8627L31.5856 18.1556L31.5856 18.1556L30.8785 18.8627ZM26.1599 15.4247L26.0132 16.4139H26.0132L26.1599 15.4247ZM20.2808 16.408L20.7414 17.2956H20.7414L20.2808 16.408ZM31.5856 18.1556L30.8784 18.8627L30.8785 18.8627L31.5856 18.1556ZM34.3165 23.5813L35.3056 23.4346L35.3056 23.4346L34.3165 23.5813ZM33.3332 29.4604L34.2208 29.9209L33.3332 29.4604ZM23.2017 34.5598L23.3606 33.5725H23.3606L23.2017 34.5598ZM17.894 31.8472L17.1869 32.5543L17.1869 32.5543L17.894 31.8472ZM15.1814 26.5395L16.1687 26.3806V26.3806L15.1814 26.5395ZM16.092 20.6487L15.1988 20.1992L16.092 20.6487ZM3.18701 13.6244C3.18701 8.11441 7.65375 3.64767 13.1637 3.64767V1.64767C6.54918 1.64767 1.18701 7.00984 1.18701 13.6244H3.18701ZM3.18701 36.5779V13.6244H1.18701V36.5779H3.18701ZM13.1637 46.5546C7.65375 46.5546 3.18701 42.0879 3.18701 36.5779H1.18701C1.18701 43.1924 6.54918 48.5546 13.1637 48.5546V46.5546ZM36.1172 46.5546H13.1637V48.5546H36.1172V46.5546ZM46.0939 36.5779C46.0939 42.0879 41.6272 46.5546 36.1172 46.5546V48.5546C42.7318 48.5546 48.0939 43.1924 48.0939 36.5779H46.0939ZM46.0939 13.6244V36.5779H48.0939V13.6244H46.0939ZM36.1172 3.64767C41.6272 3.64767 46.0939 8.11441 46.0939 13.6244H48.0939C48.0939 7.00984 42.7318 1.64767 36.1172 1.64767V3.64767ZM13.1637 3.64767H36.1172V1.64767H13.1637V3.64767ZM13.1637 0.647675C5.99689 0.647675 0.187012 6.45756 0.187012 13.6244H2.18701C2.18701 7.56213 7.10146 2.64767 13.1637 2.64767V0.647675ZM36.1172 0.647675H13.1637V2.64767H36.1172V0.647675ZM49.0939 13.6244C49.0939 6.45756 43.2841 0.647675 36.1172 0.647675V2.64767C42.1795 2.64767 47.0939 7.56213 47.0939 13.6244H49.0939ZM49.0939 36.5779V13.6244H47.0939V36.5779H49.0939ZM36.1172 49.5546C43.2841 49.5546 49.0939 43.7447 49.0939 36.5779H47.0939C47.0939 42.6402 42.1795 47.5546 36.1172 47.5546V49.5546ZM13.1637 49.5546H36.1172V47.5546H13.1637V49.5546ZM0.187012 36.5779C0.187012 43.7447 5.99689 49.5546 13.1637 49.5546V47.5546C7.10146 47.5546 2.18701 42.6402 2.18701 36.5779H0.187012ZM0.187012 13.6244V36.5779H2.18701V13.6244H0.187012ZM21.202 18.1832C22.6361 17.4391 24.2683 17.1661 25.8665 17.4031L26.1599 15.4247C24.1456 15.126 22.0883 15.4701 20.2808 16.408L21.202 18.1832ZM17.8785 21.5479C18.6049 20.1047 19.7679 18.9274 21.202 18.1832L20.2808 16.408C18.4733 17.3459 17.0076 18.8298 16.092 20.6487L17.8785 21.5479ZM17.156 26.2217C16.8993 24.6266 17.1521 22.9911 17.8785 21.5479L16.092 20.6487C15.1765 22.4677 14.8578 24.529 15.1814 26.5395L17.156 26.2217ZM19.3082 30.433C18.1658 29.2905 17.4126 27.8169 17.156 26.2217L15.1814 26.5395C15.5049 28.55 16.4541 30.4073 17.894 31.8472L19.3082 30.433ZM23.5194 32.5852C21.9243 32.3286 20.4507 31.5754 19.3082 30.433L17.894 31.8472C19.3339 33.2871 21.1912 34.2363 23.2017 34.5598L23.5194 32.5852ZM28.1933 31.8627C26.7501 32.5891 25.1146 32.8419 23.5194 32.5852L23.2017 34.5598C25.2122 34.8833 27.2735 34.5647 29.0924 33.6492L28.1933 31.8627ZM31.558 28.5392C30.8138 29.9733 29.6364 31.1363 28.1933 31.8627L29.0924 33.6492C30.9114 32.7336 32.3953 31.2679 33.3332 29.4604L31.558 28.5392ZM32.3381 23.8747C32.5751 25.4729 32.3021 27.1051 31.558 28.5392L33.3332 29.4604C34.2711 27.6528 34.6151 25.5956 34.3165 23.5813L32.3381 23.8747ZM30.1713 19.5698C31.3367 20.7352 32.0963 22.2444 32.3381 23.8747L34.3165 23.5813C34.0118 21.5266 33.0543 19.6244 31.5856 18.1556L30.1713 19.5698ZM25.8665 17.4031C27.4967 17.6448 29.006 18.4045 30.1713 19.5698L31.5856 18.1556C30.1168 16.6869 28.2146 15.7294 26.1599 15.4247L25.8665 17.4031ZM26.3066 14.4356C24.0842 14.106 21.8145 14.4856 19.8203 15.5204L20.7414 17.2956C22.3622 16.4546 24.2069 16.1461 26.0132 16.4139L26.3066 14.4356ZM32.2927 17.4485C30.6722 15.828 28.5735 14.7717 26.3066 14.4356L26.0132 16.4139C27.8557 16.6871 29.5614 17.5457 30.8784 18.8627L32.2927 17.4485ZM35.3056 23.4346C34.9695 21.1677 33.9131 19.069 32.2927 17.4485L30.8785 18.8627C32.1955 20.1798 33.0541 21.8855 33.3273 23.728L35.3056 23.4346ZM34.2208 29.9209C35.2556 27.9267 35.6352 25.657 35.3056 23.4346L33.3273 23.728C33.5951 25.5342 33.2866 27.379 32.4456 28.9998L34.2208 29.9209ZM29.542 34.5424C31.5488 33.5323 33.1861 31.9151 34.2208 29.9209L32.4456 28.9998C31.6046 30.6206 30.2739 31.935 28.6428 32.7559L29.542 34.5424ZM23.0428 35.5471C25.261 35.9041 27.5352 35.5525 29.542 34.5424L28.6428 32.7559C27.0118 33.5769 25.1634 33.8626 23.3606 33.5725L23.0428 35.5471ZM17.1869 32.5543C18.7755 34.1429 20.8247 35.1902 23.0428 35.5471L23.3606 33.5725C21.5577 33.2824 19.8923 32.4313 18.6011 31.1401L17.1869 32.5543ZM14.1941 26.6984C14.551 28.9165 15.5983 30.9656 17.1869 32.5543L18.6011 31.1401C17.3099 29.8489 16.4588 28.1834 16.1687 26.3806L14.1941 26.6984ZM15.1988 20.1992C14.1887 22.206 13.8371 24.4802 14.1941 26.6984L16.1687 26.3806C15.8786 24.5778 16.1643 22.7294 16.9853 21.0983L15.1988 20.1992ZM19.8203 15.5204C17.826 16.5551 16.2089 18.1923 15.1988 20.1992L16.9853 21.0983C17.8062 19.4673 19.1206 18.1366 20.7414 17.2956L19.8203 15.5204ZM37.7649 12.4767C37.7649 12.7529 37.541 12.9767 37.2649 12.9767V10.9767C36.4365 10.9767 35.7649 11.6483 35.7649 12.4767H37.7649ZM37.2649 11.9767C37.541 11.9767 37.7649 12.2006 37.7649 12.4767H35.7649C35.7649 13.3052 36.4365 13.9767 37.2649 13.9767V11.9767ZM37.2868 11.9767H37.2649V13.9767H37.2868V11.9767ZM36.7868 12.4767C36.7868 12.2006 37.0107 11.9767 37.2868 11.9767V13.9767C38.1152 13.9767 38.7868 13.3052 38.7868 12.4767H36.7868ZM37.2868 12.9767C37.0107 12.9767 36.7868 12.7529 36.7868 12.4767H38.7868C38.7868 11.6483 38.1152 10.9767 37.2868 10.9767V12.9767ZM37.2649 12.9767H37.2868V10.9767H37.2649V12.9767Z" fill="white"/>
</svg>
