<svg width="49" height="49" viewBox="0 0 49 49" fill="none" xmlns="http://www.w3.org/2000/svg">
<path d="M12.397 16.8809C12.3964 16.8809 12.3974 16.8809 12.397 16.8809H2.9493C2.29751 16.8805 1.76896 17.4193 1.76852 18.0841C1.76852 18.0837 1.76852 18.0847 1.76852 18.0841V46.9976C1.76809 47.6626 2.29621 48.2018 2.94786 48.2023C2.94743 48.2023 2.94844 48.2023 2.94786 48.2023H12.3955C13.0473 48.2027 13.5759 47.6639 13.5763 46.9989C13.5763 46.9985 13.5763 46.9994 13.5763 46.9989V18.0856C13.5767 17.4206 13.0486 16.8814 12.397 16.8809ZM11.2147 45.7929H4.13008V19.2903H11.2147V45.7929ZM37.1919 16.8809C34.63 16.8811 32.1397 17.7437 30.1072 19.335V18.0856C30.1076 17.4206 29.5795 16.8814 28.9279 16.8809C28.9273 16.8809 28.9283 16.8809 28.9279 16.8809H19.4802C18.8284 16.8805 18.2998 17.4193 18.2994 18.0841C18.2994 18.0837 18.2994 18.0847 18.2994 18.0841V46.9976C18.299 47.6626 18.8271 48.2018 19.4789 48.2023C19.4785 48.2023 19.4793 48.2023 19.4789 48.2023H28.9264C29.5782 48.2027 30.1068 47.6639 30.1072 46.9989C30.1072 46.9985 30.1072 46.9994 30.1072 46.9989V33.7463C30.1072 31.7503 31.6931 30.1323 33.6495 30.1323C35.6059 30.1323 37.1919 31.7503 37.1919 33.7463V46.9976C37.1914 47.6626 37.7196 48.2018 38.3713 48.2023C38.3709 48.2023 38.3718 48.2023 38.3713 48.2023H47.8189C48.4707 48.2027 48.9992 47.6639 48.9996 46.9989C48.9996 46.9985 48.9996 46.9994 48.9996 46.9989V28.9276C48.992 22.2777 43.7099 16.8887 37.1919 16.8809ZM46.6381 45.7929H39.5534V33.7463C39.5534 30.4196 36.9102 27.7229 33.6495 27.7229C30.3888 27.7229 27.7456 30.4196 27.7456 33.7463V45.7929H20.661V19.2903H27.7456V22.189C27.7456 22.7009 28.063 23.1568 28.5368 23.3254C29.0094 23.4993 29.5381 23.3447 29.849 22.9419C33.0668 18.7815 38.981 18.0702 43.059 21.3531C45.3305 23.1819 46.6506 25.9755 46.6381 28.9276V45.7929ZM8.54142 0.0200138C8.26367 0.000161365 7.9849 -0.00130894 7.70701 0.0156022C4.14276 -0.232772 1.05605 2.51376 0.8126 6.15011C0.802799 6.29643 0.797898 6.44289 0.79761 6.58951C0.766908 10.195 3.60686 13.1431 7.14083 13.1744C7.28511 13.1758 7.42925 13.1719 7.57325 13.1633H7.64013C11.1976 13.4172 14.2832 10.6808 14.5321 7.0514C14.781 3.42196 12.0989 0.273976 8.54142 0.0200138ZM8.45984 10.7608C8.18713 10.7864 7.9124 10.7842 7.64013 10.7539H7.57325C5.31533 10.931 3.34438 9.20722 3.17084 6.90361C2.9973 4.60016 4.68688 2.5892 6.9448 2.41214C7.19878 2.39229 7.4539 2.39655 7.70701 2.42494C9.9632 2.21288 11.9608 3.90695 12.1688 6.20878C12.3766 8.51077 10.7162 10.5488 8.45984 10.7608Z" fill="white"/>
</svg>
