<svg width="80" height="80" viewBox="0 0 80 80" fill="none" xmlns="http://www.w3.org/2000/svg">
<g id="Rocket-3--Streamline-Ux.svg">
<path id="Vector" d="M1.19189 40.0003C1.19189 69.8747 33.5319 88.5463 59.4039 73.609C71.4112 66.6766 78.8079 53.8651 78.8079 40.0003C78.8079 10.1259 46.4679 -8.54566 20.5959 6.39162C8.58862 13.324 1.19189 26.1355 1.19189 40.0003Z" fill="#03045E"/>
<path id="Vector_2" d="M31.9357 10.7595C31.5673 10.7612 31.2024 10.8316 30.8598 10.9671C30.2667 7.19176 25.809 5.47423 22.836 7.87557C21.8783 8.64912 21.2421 9.75095 21.051 10.9671C18.9069 10.1363 16.6672 11.9381 17.0198 14.2105C17.2457 15.667 18.5002 16.741 19.9742 16.7398H31.9357C34.2376 16.7398 35.6762 14.248 34.5253 12.2546C33.9912 11.3295 33.004 10.7596 31.9357 10.7595Z" fill="white" stroke="#45413C" stroke-width="0.8" stroke-linejoin="round"/>
<path id="Vector_3" d="M31.9357 10.7595C31.5673 10.7612 31.2024 10.8316 30.8598 10.9671C30.2667 7.19176 25.809 5.47423 22.836 7.87557C21.8783 8.64912 21.2421 9.75095 21.051 10.9671C18.9069 10.1363 16.6672 11.9381 17.0198 14.2105C17.2457 15.667 18.5002 16.741 19.9742 16.7398H31.9357C34.2376 16.7398 35.6762 14.248 34.5253 12.2546C33.9912 11.3295 33.004 10.7596 31.9357 10.7595Z" fill="white" stroke="#45413C" stroke-width="0.8" stroke-linejoin="round"/>
<path id="Vector_4" d="M69.7435 56.4744C69.2731 56.4765 68.8072 56.5663 68.3697 56.7392C67.6087 51.922 61.9181 49.7351 58.1268 52.8028C56.9084 53.7887 56.0987 55.1912 55.8541 56.7392C53.1177 55.6778 50.2582 57.9767 50.7072 60.8773C50.9952 62.7377 52.5978 64.1095 54.4803 64.107H69.7435C72.6813 64.1537 74.5681 61.0027 73.1396 58.4352C72.4556 57.2055 71.1504 56.452 69.7435 56.4744Z" fill="white" stroke="#45413C" stroke-width="0.8" stroke-linejoin="round"/>
<path id="Vector_5" d="M69.7435 56.4744C69.2731 56.4765 68.8072 56.5663 68.3697 56.7392C67.6087 51.922 61.9181 49.7351 58.1268 52.8028C56.9084 53.7887 56.0987 55.1912 55.8541 56.7392C53.1177 55.6778 50.2582 57.9767 50.7072 60.8773C50.9952 62.7377 52.5978 64.1095 54.4803 64.107H69.7435C72.6813 64.1537 74.5681 61.0027 73.1396 58.4352C72.4556 57.2055 71.1504 56.452 69.7435 56.4744Z" fill="white" stroke="#45413C" stroke-width="0.8" stroke-linejoin="round"/>
<path id="Vector_6" d="M48.8228 17.4687L50.1577 15.8008L56.828 21.1393L55.493 22.8073L48.8228 17.4687Z" fill="#DAEDF7"/>
<path id="Vector_7" d="M5.15405 50.5783L28.0711 45.4469" stroke="#45413C" stroke-width="0.8" stroke-linecap="round" stroke-linejoin="round"/>
<path id="Vector_8" d="M7.00642 49.3536C5.8223 49.112 4.82066 50.2428 5.20351 51.3892C5.38116 51.9211 5.82919 52.3179 6.37876 52.4301L22.5306 55.723L23.1583 52.6465L7.00642 49.3536Z" fill="#DAEDF7" stroke="#45413C" stroke-width="0.8" stroke-linecap="round" stroke-linejoin="round"/>
<path id="Vector_9" d="M35.4411 74.8175L35.4255 51.3328" stroke="#45413C" stroke-width="0.8" stroke-linecap="round" stroke-linejoin="round"/>
<path id="Vector_10" d="M36.2297 72.742C36.7249 73.8444 35.841 75.0694 34.6388 74.947C34.0808 74.8902 33.5955 74.5401 33.3656 74.0285L26.613 58.9904L29.4781 57.7039L36.2297 72.742Z" fill="#DAEDF7" stroke="#45413C" stroke-width="0.8" stroke-linecap="round" stroke-linejoin="round"/>
<path id="Vector_11" d="M27.5775 61.139L20.2234 55.2528L51.6627 14.6364L59.0168 20.5226L27.5775 61.139Z" fill="#DAEDF7"/>
<path id="Vector_12" d="M51.6627 14.6364L20.2234 55.2528L22.0619 56.7247L53.5012 16.1082L51.6627 14.6364Z" fill="white"/>
<path id="Vector_13" d="M64.4122 13.78C65.0543 12.9784 65.4662 12.0172 65.6037 10.9994L65.7977 9.57515C65.928 8.60978 65.5424 7.64686 64.782 7.03805L63.5566 6.05724C62.7963 5.44859 61.7724 5.28361 60.8594 5.62259L59.5118 6.12226C58.5487 6.47977 57.7008 7.09246 57.0592 7.89476L51.6638 14.6357L59.0179 20.5219L64.4122 13.78Z" fill="#DAEDF7"/>
<path id="Vector_14" d="M61.3491 7.59562L62.6967 7.09595C63.4772 6.81249 64.3439 6.8966 65.0552 7.32492C64.971 7.22307 64.8793 7.12771 64.7807 7.03972L63.5553 6.05883C62.7951 5.45017 61.7712 5.2852 60.8582 5.62418L59.5106 6.1248C58.5473 6.4816 57.6994 7.09405 57.0579 7.89635L51.6626 14.6373L53.5011 16.1091L58.8965 9.3682C59.5382 8.56582 60.3858 7.95313 61.3491 7.59562Z" fill="white"/>
<path id="Vector_15" d="M64.4122 13.78C65.0543 12.9784 65.4662 12.0172 65.6037 10.9994L65.7977 9.57515C65.928 8.60978 65.5424 7.64686 64.782 7.03805L63.5566 6.05724C62.7963 5.44859 61.7724 5.28361 60.8594 5.62259L59.5118 6.12226C58.5487 6.47977 57.7008 7.09246 57.0592 7.89476L51.6638 14.6357L59.0179 20.5219L64.4122 13.78Z" stroke="#45413C" stroke-width="0.8" stroke-linecap="round" stroke-linejoin="round"/>
<path id="Vector_16" d="M65.2191 12.415L58.2124 6.80823" stroke="#45413C" stroke-width="0.8" stroke-linecap="round" stroke-linejoin="round"/>
<path id="Vector_17" d="M27.5775 61.139L20.2234 55.2528L51.6627 14.6364L59.0168 20.5226L27.5775 61.139Z" stroke="#45413C" stroke-width="0.8" stroke-linecap="round" stroke-linejoin="round"/>
<path id="Vector_18" d="M30.0302 58.0748L28.1916 56.6031L30.2776 50.2289L24.5146 53.6605L22.6761 52.1887L20.2234 55.2525L27.5775 61.1388L30.0302 58.0748Z" fill="#87898C"/>
<path id="Vector_19" d="M28.0665 60.5256C27.7192 58.8475 26.7576 57.3597 25.3703 56.3538C24.0861 55.2211 22.4254 54.6087 20.7133 54.6365L20.2224 55.2487L27.5765 61.1349L28.0665 60.5256Z" fill="#BDBEC0"/>
<path id="Vector_20" d="M30.0302 58.0748L28.1916 56.6031L30.2776 50.2289L24.5146 53.6605L22.6761 52.1887L20.2234 55.2525L27.5775 61.1388L30.0302 58.0748Z" stroke="#45413C" stroke-width="0.8" stroke-linecap="round" stroke-linejoin="round"/>
<path id="Vector_21" d="M26.3524 60.1584L21.45 56.234C19.1362 57.5997 17.0646 59.3392 15.3193 61.3819C13.4672 63.6958 11.7538 70.135 11.0261 73.1485C10.8837 73.7333 11.4277 74.2531 12.0054 74.0842C12.0494 74.0713 12.0921 74.0546 12.1331 74.0343C14.9147 72.6644 20.8213 69.5821 22.6734 67.2681C24.2839 65.1176 25.527 62.7153 26.3524 60.1584Z" fill="#FFAA54" stroke="#45413C" stroke-width="0.8" stroke-linecap="round" stroke-linejoin="round"/>
<path id="Vector_22" d="M24.5136 58.6863C24.5136 58.6863 22.777 63.9952 18.7467 65.761C18.1772 65.998 17.5647 65.5296 17.6442 64.9178C17.6457 64.9062 17.6475 64.8945 17.6495 64.883C18.4887 60.5626 23.2883 57.7035 23.2883 57.7035L24.5136 58.6863Z" fill="#FFE500" stroke="#45413C" stroke-width="0.8" stroke-linecap="round" stroke-linejoin="round"/>
</g>
</svg>
