<svg width="110" height="109" viewBox="0 0 110 109" fill="none" xmlns="http://www.w3.org/2000/svg">
<g clip-path="url(#clip0_2983_275)">
<path d="M101.828 60.3133C101.435 60.0768 101.118 59.733 100.917 59.3231C100.715 58.9132 100.637 58.4544 100.691 58.0016C100.783 56.8526 100.833 55.6808 100.833 54.5C100.833 53.3192 100.783 52.1474 100.691 50.9893C100.637 50.5378 100.716 50.0806 100.918 49.6722C101.119 49.2639 101.435 48.9217 101.828 48.6867C104.469 47.1716 106.397 44.6804 107.187 41.7592C107.978 38.8381 107.567 35.7256 106.045 33.1042L99.2154 21.3912C97.677 18.7772 95.1554 16.8741 92.2033 16.0994C89.2512 15.3247 86.1096 15.7414 83.4671 17.2583C83.0923 17.4776 82.6618 17.5853 82.2269 17.5684C81.792 17.5515 81.3712 17.4107 81.015 17.163C78.9914 15.7847 76.8594 14.5697 74.6396 13.5296C74.2374 13.3401 73.8997 13.0386 73.6677 12.6619C73.4358 12.2852 73.3195 11.8497 73.3333 11.4087C73.3297 8.38401 72.1155 5.48426 69.9571 3.3455C67.7988 1.20674 64.8724 0.0036058 61.82 0L48.18 0C45.1212 0.00601724 42.19 1.21554 40.031 3.36262C37.8719 5.50969 36.6618 8.41854 36.6667 11.4495C36.6676 11.8786 36.5458 12.2992 36.3154 12.6625C36.0851 13.0258 35.7555 13.317 35.365 13.5024C33.1431 14.5414 31.0095 15.7565 28.985 17.1357C28.6232 17.3837 28.197 17.5233 27.7573 17.5378C27.3176 17.5523 26.883 17.4411 26.5054 17.2175C23.8611 15.7063 20.7196 15.297 17.771 16.0797C14.8224 16.8623 12.308 18.7727 10.78 21.3912L3.95541 33.1042C2.43323 35.7256 2.02231 38.8381 2.81278 41.7592C3.60325 44.6804 5.53057 47.1716 8.17208 48.6867C8.56548 48.9232 8.88185 49.267 9.08341 49.6769C9.28497 50.0868 9.36319 50.5456 9.30874 50.9984C9.21708 52.1474 9.16666 53.3192 9.16666 54.5C9.16666 55.6808 9.21708 56.8526 9.30874 58.0107C9.36251 58.4622 9.28391 58.9194 9.08233 59.3277C8.88075 59.7361 8.56474 60.0783 8.17208 60.3133C5.53057 61.8284 3.60325 64.3196 2.81278 67.2408C2.02231 70.1619 2.43323 73.2744 3.95541 75.8958L10.7846 87.6088C12.3183 90.2276 14.8383 92.1362 17.791 92.9154C20.7438 93.6946 23.8879 93.2806 26.5329 91.7644C26.9073 91.544 27.3381 91.4357 27.7732 91.4526C28.2083 91.4695 28.6292 91.6109 28.985 91.8597C31.0086 93.238 33.1406 94.453 35.3604 95.4931C35.7589 95.681 36.0942 95.979 36.3259 96.3513C36.5576 96.7235 36.676 97.1541 36.6667 97.5913C36.6703 100.616 37.8845 103.516 40.0429 105.654C42.2012 107.793 45.1276 108.996 48.18 109H61.82C64.8788 108.994 67.81 107.784 69.969 105.637C72.1281 103.49 73.3382 100.581 73.3333 97.5505C73.3324 97.1214 73.4542 96.7008 73.6846 96.3375C73.9149 95.9742 74.2445 95.683 74.635 95.4976C76.8569 94.4586 78.9905 93.2435 81.015 91.8643C81.3768 91.6163 81.803 91.4767 82.2427 91.4622C82.6823 91.4477 83.117 91.5589 83.4946 91.7825C86.1397 93.29 89.28 93.6972 92.2275 92.9149C95.175 92.1326 97.6894 90.2246 99.22 87.6088L106.045 75.9003C107.568 73.2786 107.98 70.1649 107.189 67.2427C106.399 64.3205 104.471 61.8284 101.828 60.3133ZM91.6667 54.5C91.6667 55.431 91.6254 56.353 91.5521 57.2613C91.3697 59.4249 91.8071 61.5955 92.8141 63.5237C93.8211 65.4519 95.3568 67.0594 97.2446 68.1613C97.5117 68.3142 97.7457 68.5177 97.9334 68.7602C98.121 69.0028 98.2586 69.2796 98.3382 69.5749C98.4178 69.8701 98.4379 70.178 98.3973 70.481C98.3567 70.784 98.2562 71.076 98.1017 71.3405L91.2862 83.0489C90.9681 83.5841 90.4486 83.9722 89.8419 84.128C89.2352 84.2839 88.5908 84.1947 88.0504 83.88C86.1703 82.8145 84.0254 82.295 81.8612 82.381C79.697 82.4669 77.601 83.1548 75.8129 84.366C74.1937 85.4698 72.4878 86.4433 70.7117 87.2772C68.7496 88.2091 67.0937 89.6722 65.9355 91.4973C64.7773 93.3225 64.164 95.4353 64.1667 97.5913C64.1667 98.2081 63.9194 98.7995 63.4793 99.2356C63.0393 99.6717 62.4424 99.9167 61.82 99.9167H48.18C47.8687 99.9155 47.5607 99.8532 47.2738 99.7334C46.9869 99.6135 46.7269 99.4385 46.5087 99.2185C46.2905 98.9985 46.1184 98.7378 46.0025 98.4515C45.8866 98.1652 45.8291 97.8589 45.8333 97.5505C45.8279 95.4026 45.2102 93.3 44.0514 91.4848C42.8927 89.6697 41.24 88.2158 39.2837 87.2908C37.5096 86.4559 35.8053 85.4825 34.1871 84.3796C32.3932 83.1674 30.2904 82.4817 28.1206 82.4013C25.9508 82.321 23.8022 82.8493 21.9221 83.9255C21.3828 84.2336 20.7422 84.3172 20.1407 84.158C19.5393 83.9988 19.0261 83.6098 18.7137 83.0762L11.9167 71.3587C11.6057 70.8243 11.5213 70.1895 11.682 69.5935C11.8426 68.9975 12.2353 68.489 12.7737 68.1795C14.6616 67.0776 16.1972 65.4701 17.2042 63.5419C18.2112 61.6137 18.6487 59.4431 18.4662 57.2795C18.3746 56.353 18.3333 55.431 18.3333 54.5C18.3333 53.569 18.3746 52.647 18.4479 51.7387C18.6303 49.5751 18.1929 47.4045 17.1859 45.4763C16.1789 43.5481 14.6432 41.9406 12.7554 40.8387C12.4883 40.6858 12.2543 40.4823 12.0666 40.2398C11.879 39.9972 11.7414 39.7204 11.6618 39.4251C11.5822 39.1299 11.5621 38.822 11.6027 38.519C11.6433 38.216 11.7437 37.924 11.8983 37.6595L18.7137 25.9375C18.87 25.6711 19.0779 25.4381 19.3256 25.252C19.5732 25.0658 19.8557 24.9301 20.1566 24.8528C20.4576 24.7755 20.771 24.7581 21.0787 24.8017C21.3865 24.8452 21.6825 24.9487 21.9496 25.1063C23.8294 26.1729 25.9744 26.693 28.1388 26.607C30.3033 26.5211 32.3994 25.8326 34.1871 24.6204C35.8063 23.5165 37.5122 22.543 39.2883 21.7092C41.2483 20.7783 42.9028 19.3173 44.0608 17.4948C45.2189 15.6722 45.8334 13.5624 45.8333 11.4087C45.8333 10.7919 46.0806 10.2005 46.5207 9.76441C46.9607 9.32832 47.5576 9.08333 48.18 9.08333H61.82C62.1313 9.0845 62.4393 9.14681 62.7262 9.26664C63.0131 9.38648 63.2731 9.56147 63.4913 9.78149C63.7095 10.0015 63.8816 10.2622 63.9975 10.5485C64.1134 10.8348 64.1709 11.1411 64.1667 11.4495C64.1721 13.5974 64.7898 15.7 65.9485 17.5152C67.1073 19.3303 68.76 20.7841 70.7162 21.7092C72.4904 22.5441 74.1946 23.5175 75.8129 24.6204C77.6072 25.8316 79.7099 26.5167 81.8794 26.597C84.049 26.6774 86.1974 26.1497 88.0779 25.0745C88.6172 24.7664 89.2578 24.6828 89.8593 24.842C90.4607 25.0012 90.9739 25.3902 91.2862 25.9238L98.0833 37.6413C98.3943 38.1757 98.4787 38.8105 98.318 39.4065C98.1574 40.0025 97.7647 40.511 97.2262 40.8205C95.3384 41.9224 93.8027 43.5299 92.7957 45.4581C91.7888 47.3863 91.3513 49.5569 91.5337 51.7205C91.6254 52.647 91.6667 53.5917 91.6667 54.5Z" fill="black"/>
<path d="M55.0001 31.7917C50.4676 31.7917 46.0369 33.1236 42.2682 35.6188C38.4996 38.114 35.5623 41.6606 33.8278 45.81C32.0933 49.9594 31.6395 54.5253 32.5237 58.9303C33.408 63.3352 35.5906 67.3815 38.7955 70.5573C42.0005 73.7331 46.0838 75.8959 50.5292 76.7721C54.9746 77.6483 59.5824 77.1986 63.7699 75.4799C67.9574 73.7611 71.5364 70.8505 74.0546 67.1162C76.5727 63.3818 77.9167 58.9914 77.9167 54.5001C77.9094 48.4797 75.4927 42.7079 71.1965 38.4508C66.9004 34.1938 61.0757 31.799 55.0001 31.7917ZM55.0001 68.1251C52.2806 68.1251 49.6221 67.326 47.361 65.8289C45.0998 64.3317 43.3374 62.2038 42.2967 59.7141C41.256 57.2245 40.9837 54.485 41.5143 51.842C42.0448 49.199 43.3544 46.7712 45.2773 44.8658C47.2003 42.9603 49.6503 41.6626 52.3176 41.1369C54.9848 40.6112 57.7495 40.881 60.2619 41.9122C62.7744 42.9435 64.9219 44.6898 66.4328 46.9304C67.9436 49.1711 68.7501 51.8053 68.7501 54.5001C68.7501 58.1137 67.3014 61.5792 64.7228 64.1344C62.1441 66.6896 58.6468 68.1251 55.0001 68.1251Z" fill="black"/>
</g>
<defs>
<clipPath id="clip0_2983_275">
<rect width="110" height="109" fill="white"/>
</clipPath>
</defs>
</svg>
