<svg width="95" height="96" viewBox="0 0 95 96" fill="none" xmlns="http://www.w3.org/2000/svg">
<g id="Frame 8">
<path id="Vector" d="M64.6882 10.9597C64.6882 9.46112 66.3105 8.52441 67.6084 9.27372C68.2108 9.6215 68.5818 10.2643 68.5818 10.9597V19.3959H64.6882V10.9597Z" fill="#FFF48C" stroke="#45413C" stroke-width="1.08357" stroke-linecap="round" stroke-linejoin="round"/>
<path id="Vector_2" d="M54.3057 10.9597C54.3057 9.46112 55.928 8.52441 57.2259 9.27372C57.8282 9.6215 58.1993 10.2643 58.1993 10.9597V19.3959H54.3057V10.9597Z" fill="#FFF48C" stroke="#45413C" stroke-width="1.08357" stroke-linecap="round" stroke-linejoin="round"/>
<path id="Vector_3" d="M43.9229 10.9597C43.9229 9.46112 45.5451 8.52441 46.8431 9.27372C47.4454 9.6215 47.8164 10.2643 47.8164 10.9597V19.3959H43.9229V10.9597Z" fill="#FFF48C" stroke="#45413C" stroke-width="1.08357" stroke-linecap="round" stroke-linejoin="round"/>
<path id="Vector_4" d="M33.5396 10.9597C33.5396 9.46112 35.162 8.52441 36.4599 9.27372C37.0622 9.6215 37.4333 10.2643 37.4333 10.9597V19.3959H33.5396V10.9597Z" fill="#FFF48C" stroke="#45413C" stroke-width="1.08357" stroke-linecap="round" stroke-linejoin="round"/>
<path id="Vector_5" d="M64.6882 84.939C64.6882 86.4376 66.3105 87.3743 67.6084 86.625C68.2108 86.2772 68.5818 85.6346 68.5818 84.939V76.5028H64.6882V84.939Z" fill="#FFF48C" stroke="#45413C" stroke-width="1.08357" stroke-linecap="round" stroke-linejoin="round"/>
<path id="Vector_6" d="M54.3057 84.939C54.3057 86.4376 55.928 87.3743 57.2259 86.625C57.8282 86.2772 58.1993 85.6346 58.1993 84.939V76.5028H54.3057V84.939Z" fill="#FFF48C" stroke="#45413C" stroke-width="1.08357" stroke-linecap="round" stroke-linejoin="round"/>
<path id="Vector_7" d="M43.9229 84.939C43.9229 86.4376 45.5451 87.3743 46.8431 86.625C47.4454 86.2772 47.8164 85.6346 47.8164 84.939V76.5028H43.9229V84.939Z" fill="#FFF48C" stroke="#45413C" stroke-width="1.08357" stroke-linecap="round" stroke-linejoin="round"/>
<path id="Vector_8" d="M33.5396 84.939C33.5396 86.4376 35.162 87.3743 36.4599 86.625C37.0622 86.2772 37.4333 85.6346 37.4333 84.939V76.5028H33.5396V84.939Z" fill="#FFF48C" stroke="#45413C" stroke-width="1.08357" stroke-linecap="round" stroke-linejoin="round"/>
<path id="Vector_9" d="M14.0711 34.3218C12.5724 34.3218 11.6358 32.6995 12.3851 31.4016C12.7328 30.7992 13.3756 30.4282 14.0711 30.4282H22.5073V34.3218H14.0711Z" fill="#FFF48C" stroke="#45413C" stroke-width="1.08357" stroke-linecap="round" stroke-linejoin="round"/>
<path id="Vector_10" d="M14.0715 44.7051C12.5728 44.7051 11.6362 43.0827 12.3856 41.7848C12.7334 41.1825 13.3761 40.8115 14.0715 40.8115H22.5077V44.7051H14.0715Z" fill="#FFF48C" stroke="#45413C" stroke-width="1.08357" stroke-linecap="round" stroke-linejoin="round"/>
<path id="Vector_11" d="M14.0715 55.0875C12.5728 55.0875 11.6362 53.4651 12.3856 52.1672C12.7334 51.565 13.3761 51.1939 14.0715 51.1939H22.5077V55.0875H14.0715Z" fill="#FFF48C" stroke="#45413C" stroke-width="1.08357" stroke-linecap="round" stroke-linejoin="round"/>
<path id="Vector_12" d="M14.0715 65.4708C12.5728 65.4708 11.6362 63.8484 12.3856 62.5506C12.7334 61.9483 13.3761 61.5772 14.0715 61.5772H22.5077V65.4708H14.0715Z" fill="#FFF48C" stroke="#45413C" stroke-width="1.08357" stroke-linecap="round" stroke-linejoin="round"/>
<path id="Vector_13" d="M88.0502 34.3218C89.5488 34.3218 90.4855 32.6995 89.7361 31.4016C89.3884 30.7992 88.7457 30.4282 88.0502 30.4282H79.614V34.3218H88.0502Z" fill="#FFF48C" stroke="#45413C" stroke-width="1.08357" stroke-linecap="round" stroke-linejoin="round"/>
<path id="Vector_14" d="M88.0502 44.7051C89.5488 44.7051 90.4855 43.0827 89.7361 41.7848C89.3883 41.1825 88.7457 40.8115 88.0502 40.8115H79.614V44.7051H88.0502Z" fill="#FFF48C" stroke="#45413C" stroke-width="1.08357" stroke-linecap="round" stroke-linejoin="round"/>
<path id="Vector_15" d="M88.0502 55.0875C89.5488 55.0876 90.4854 53.4653 89.7362 52.1674C89.3884 51.565 88.7458 51.1939 88.0502 51.1939H79.614V55.0875H88.0502Z" fill="#FFF48C" stroke="#45413C" stroke-width="1.08357" stroke-linecap="round" stroke-linejoin="round"/>
<path id="Vector_16" d="M88.0502 65.4708C89.5488 65.4709 90.4854 63.8486 89.7362 62.5507C89.3884 61.9483 88.7458 61.5772 88.0502 61.5772H79.614V65.4708H88.0502Z" fill="#FFF48C" stroke="#45413C" stroke-width="1.08357" stroke-linecap="round" stroke-linejoin="round"/>
<path id="Vector_17" d="M20.3982 16.8005H81.7229V78.125H20.3982V16.8005Z" fill="#03045E"/>
<path id="Vector_18" d="M78.9974 20.2074C80.5025 20.2075 81.7229 21.4277 81.7229 22.9329V19.526C81.7229 18.0207 80.5025 16.8005 78.9974 16.8005H23.1238C21.6184 16.8004 20.3982 18.0207 20.3982 19.526V22.9329C20.3982 21.4276 21.6184 20.2073 23.1238 20.2074H78.9974Z" fill="#03045E"/>
<path id="Vector_19" d="M20.3982 16.8005H81.7229V78.125H20.3982V16.8005Z" stroke="#45413C" stroke-width="1.08357" stroke-linecap="round" stroke-linejoin="round"/>
<path id="Vector_20" d="M26.4646 32.7043H29.5393L36.3025 39.4675V45.003" stroke="#8CFFE4" stroke-width="1.08357" stroke-linecap="round" stroke-linejoin="round"/>
<path id="Vector_21" d="M49.2163 38.2385V33.9335L46.1416 30.8601V23.4803" stroke="#8CFFE4" stroke-width="1.08357" stroke-linecap="round" stroke-linejoin="round"/>
<path id="Vector_22" d="M45.5264 22.8653C45.5264 23.3389 46.039 23.6349 46.4491 23.3981C46.6394 23.2882 46.7567 23.0851 46.7567 22.8653C46.7567 22.3918 46.244 22.0957 45.8339 22.3326C45.6436 22.4424 45.5264 22.6455 45.5264 22.8653Z" fill="#C8FFA1" stroke="#8CFFE4" stroke-width="1.08357" stroke-linecap="round" stroke-linejoin="round"/>
<path id="Vector_23" d="M44.2963 41.3135V35.1642L41.2217 32.0895V29.6301" stroke="#8CFFE4" stroke-width="1.08357" stroke-linecap="round" stroke-linejoin="round"/>
<path id="Vector_24" d="M40.6067 29.015C40.6067 29.4886 41.1193 29.7846 41.5295 29.5479C41.7199 29.4379 41.8371 29.2348 41.8371 29.015C41.8371 28.5414 41.3245 28.2454 40.9144 28.4823C40.7239 28.5922 40.6067 28.7952 40.6067 29.015Z" fill="#C8FFA1" stroke="#8CFFE4" stroke-width="1.08357" stroke-linecap="round" stroke-linejoin="round"/>
<path id="Vector_25" d="M39.3774 41.3132V36.3942L36.3027 33.3196V23.4803" stroke="#8CFFE4" stroke-width="1.08357" stroke-linecap="round" stroke-linejoin="round"/>
<path id="Vector_26" d="M35.6873 22.8653C35.6873 23.3389 36.1999 23.6349 36.61 23.3981C36.8003 23.2882 36.9176 23.0851 36.9176 22.8653C36.9176 22.3918 36.4049 22.0957 35.9948 22.3326C35.8045 22.4424 35.6873 22.6455 35.6873 22.8653Z" fill="#C8FFA1" stroke="#8CFFE4" stroke-width="1.08357" stroke-linecap="round" stroke-linejoin="round"/>
<path id="Vector_27" d="M25.8496 32.7043C25.8496 33.1779 26.3623 33.4739 26.7724 33.237C26.9628 33.1272 27.08 32.9241 27.08 32.7043C27.08 32.2307 26.5674 31.9347 26.1573 32.1715C25.9669 32.2814 25.8496 32.4845 25.8496 32.7043Z" fill="#C8FFA1" stroke="#8CFFE4" stroke-width="1.08357" stroke-linecap="round" stroke-linejoin="round"/>
<path id="Vector_28" d="M26.4646 42.5421H29.5393L34.4582 47.4623" stroke="#8CFFE4" stroke-width="1.08357" stroke-linecap="round" stroke-linejoin="round"/>
<path id="Vector_29" d="M25.8496 42.5422C25.8496 43.0157 26.3623 43.3116 26.7724 43.0749C26.9628 42.965 27.08 42.7619 27.08 42.5422C27.08 42.0686 26.5674 41.7726 26.1573 42.0093C25.9669 42.1193 25.8496 42.3224 25.8496 42.5422Z" fill="#C8FFA1" stroke="#8CFFE4" stroke-width="1.08357" stroke-linecap="round" stroke-linejoin="round"/>
<path id="Vector_30" d="M75.6564 32.7043H72.5818L65.8186 39.4675V45.003" stroke="#8CFFE4" stroke-width="1.08357" stroke-linecap="round" stroke-linejoin="round"/>
<path id="Vector_31" d="M52.905 38.2385V33.9335L55.9797 30.8601V23.4803" stroke="#8CFFE4" stroke-width="1.08357" stroke-linecap="round" stroke-linejoin="round"/>
<path id="Vector_32" d="M55.3645 22.8653C55.3645 23.3389 55.8772 23.6349 56.2873 23.3981C56.4777 23.2882 56.5949 23.0851 56.5949 22.8653C56.5949 22.3918 56.0823 22.0957 55.6722 22.3326C55.4818 22.4424 55.3645 22.6455 55.3645 22.8653Z" fill="#C8FFA1" stroke="#8CFFE4" stroke-width="1.08357" stroke-linecap="round" stroke-linejoin="round"/>
<path id="Vector_33" d="M57.824 41.3135V35.1642L60.8986 32.0895V29.6301" stroke="#8CFFE4" stroke-width="1.08357" stroke-linecap="round" stroke-linejoin="round"/>
<path id="Vector_34" d="M60.2837 29.015C60.2837 29.4886 60.7964 29.7846 61.2065 29.5479C61.3968 29.4379 61.514 29.2348 61.514 29.015C61.514 28.5414 61.0014 28.2454 60.5912 28.4823C60.4009 28.5922 60.2837 28.7952 60.2837 29.015Z" fill="#C8FFA1" stroke="#8CFFE4" stroke-width="1.08357" stroke-linecap="round" stroke-linejoin="round"/>
<path id="Vector_35" d="M62.7444 41.3132V36.3942L65.8191 33.3196V23.4803" stroke="#8CFFE4" stroke-width="1.08357" stroke-linecap="round" stroke-linejoin="round"/>
<path id="Vector_36" d="M65.2036 22.8653C65.2036 23.3389 65.7163 23.6349 66.1264 23.3981C66.3168 23.2882 66.434 23.0851 66.434 22.8653C66.434 22.3918 65.9214 22.0957 65.5112 22.3326C65.3209 22.4424 65.2036 22.6455 65.2036 22.8653Z" fill="#C8FFA1" stroke="#8CFFE4" stroke-width="1.08357" stroke-linecap="round" stroke-linejoin="round"/>
<path id="Vector_37" d="M75.042 32.7043C75.042 33.1779 75.5547 33.4739 75.9648 33.237C76.1551 33.1272 76.2723 32.9241 76.2723 32.7043C76.2723 32.2307 75.7597 31.9347 75.3495 32.1715C75.1592 32.2814 75.042 32.4845 75.042 32.7043Z" fill="#C8FFA1" stroke="#8CFFE4" stroke-width="1.08357" stroke-linecap="round" stroke-linejoin="round"/>
<path id="Vector_38" d="M75.6572 42.5421H72.5825L67.6636 47.4623" stroke="#8CFFE4" stroke-width="1.08357" stroke-linecap="round" stroke-linejoin="round"/>
<path id="Vector_39" d="M75.042 42.5422C75.042 43.0157 75.5547 43.3116 75.9648 43.0749C76.1551 42.965 76.2723 42.7619 76.2723 42.5422C76.2723 42.0686 75.7597 41.7726 75.3495 42.0093C75.1592 42.1193 75.042 42.3224 75.042 42.5422Z" fill="#C8FFA1" stroke="#8CFFE4" stroke-width="1.08357" stroke-linecap="round" stroke-linejoin="round"/>
<path id="Vector_40" d="M75.6564 62.2191H72.5818L65.8186 55.4558V49.9217" stroke="#8CFFE4" stroke-width="1.08357" stroke-linecap="round" stroke-linejoin="round"/>
<path id="Vector_41" d="M52.905 56.6851V60.9901L55.9797 64.0648V71.4433" stroke="#8CFFE4" stroke-width="1.08357" stroke-linecap="round" stroke-linejoin="round"/>
<path id="Vector_42" d="M55.3645 72.0582C55.3645 72.5317 55.8772 72.8277 56.2873 72.5909C56.4777 72.481 56.5949 72.278 56.5949 72.0582C56.5949 71.5845 56.0823 71.2886 55.6722 71.5253C55.4818 71.6353 55.3645 71.8384 55.3645 72.0582Z" stroke="#8CFFE4" stroke-width="1.08357" stroke-linecap="round" stroke-linejoin="round"/>
<path id="Vector_43" d="M57.824 53.6112V59.7605L60.8986 62.8352V65.2947" stroke="#8CFFE4" stroke-width="1.08357" stroke-linecap="round" stroke-linejoin="round"/>
<path id="Vector_44" d="M60.2837 65.9087C60.2837 66.3823 60.7964 66.6783 61.2065 66.4415C61.3968 66.3316 61.514 66.1286 61.514 65.9087C61.514 65.4351 61.0014 65.1392 60.5912 65.3759C60.4009 65.4859 60.2837 65.6889 60.2837 65.9087Z" fill="#C8FFA1" stroke="#8CFFE4" stroke-width="1.08357" stroke-linecap="round" stroke-linejoin="round"/>
<path id="Vector_45" d="M62.7444 53.6112V58.5314L65.8191 61.6061V71.444" stroke="#8CFFE4" stroke-width="1.08357" stroke-linecap="round" stroke-linejoin="round"/>
<path id="Vector_46" d="M65.2036 72.0582C65.2036 72.5317 65.7163 72.8277 66.1264 72.5909C66.3168 72.481 66.434 72.278 66.434 72.0582C66.434 71.5845 65.9214 71.2886 65.5112 71.5253C65.3209 71.6353 65.2036 71.8384 65.2036 72.0582Z" fill="#C8FFA1" stroke="#8CFFE4" stroke-width="1.08357" stroke-linecap="round" stroke-linejoin="round"/>
<path id="Vector_47" d="M75.042 62.2198C75.042 62.6934 75.5547 62.9894 75.9648 62.7525C76.1551 62.6427 76.2723 62.4396 76.2723 62.2198C76.2723 61.7462 75.7597 61.4502 75.3495 61.687C75.1592 61.7969 75.042 62 75.042 62.2198Z" fill="#C8FFA1" stroke="#8CFFE4" stroke-width="1.08357" stroke-linecap="round" stroke-linejoin="round"/>
<path id="Vector_48" d="M75.6572 52.3814H72.5825L67.6636 47.4625" stroke="#8CFFE4" stroke-width="1.08357" stroke-linecap="round" stroke-linejoin="round"/>
<path id="Vector_49" d="M75.042 52.3818C75.042 52.8554 75.5547 53.1514 75.9648 52.9146C76.1551 52.8047 76.2723 52.6016 76.2723 52.3818C76.2723 51.9083 75.7597 51.6123 75.3495 51.8491C75.1592 51.9589 75.042 52.162 75.042 52.3818Z" fill="#C8FFA1" stroke="#8CFFE4" stroke-width="1.08357" stroke-linecap="round" stroke-linejoin="round"/>
<path id="Vector_50" d="M26.4646 62.2191H29.5393L36.3025 55.4558V49.9217" stroke="#8CFFE4" stroke-width="1.08357" stroke-linecap="round" stroke-linejoin="round"/>
<path id="Vector_51" d="M49.2163 56.6851V60.9901L46.1416 64.0648V71.4433" stroke="#8CFFE4" stroke-width="1.08357" stroke-linecap="round" stroke-linejoin="round"/>
<path id="Vector_52" d="M45.5264 72.0582C45.5264 72.5317 46.039 72.8277 46.4491 72.5909C46.6394 72.481 46.7567 72.278 46.7567 72.0582C46.7567 71.5845 46.244 71.2886 45.8339 71.5253C45.6436 71.6353 45.5264 71.8384 45.5264 72.0582Z" fill="#C8FFA1" stroke="#8CFFE4" stroke-width="1.08357" stroke-linecap="round" stroke-linejoin="round"/>
<path id="Vector_53" d="M44.2963 53.6112V59.7605L41.2217 62.8352V65.2947" stroke="#8CFFE4" stroke-width="1.08357" stroke-linecap="round" stroke-linejoin="round"/>
<path id="Vector_54" d="M40.6067 65.9087C40.6067 66.3823 41.1193 66.6783 41.5295 66.4415C41.7199 66.3316 41.8371 66.1286 41.8371 65.9087C41.8371 65.4351 41.3245 65.1392 40.9144 65.3759C40.7239 65.4859 40.6067 65.6889 40.6067 65.9087Z" fill="#C8FFA1" stroke="#8CFFE4" stroke-width="1.08357" stroke-linecap="round" stroke-linejoin="round"/>
<path id="Vector_55" d="M39.3774 53.6112V58.5314L36.3027 61.6061V71.444" stroke="#8CFFE4" stroke-width="1.08357" stroke-linecap="round" stroke-linejoin="round"/>
<path id="Vector_56" d="M35.6873 72.0582C35.6873 72.5317 36.1999 72.8277 36.61 72.5909C36.8003 72.481 36.9176 72.278 36.9176 72.0582C36.9176 71.5845 36.4049 71.2886 35.9948 71.5253C35.8045 71.6353 35.6873 71.8384 35.6873 72.0582Z" fill="#C8FFA1" stroke="#8CFFE4" stroke-width="1.08357" stroke-linecap="round" stroke-linejoin="round"/>
<path id="Vector_57" d="M25.8496 62.2198C25.8496 62.6934 26.3623 62.9894 26.7724 62.7525C26.9628 62.6427 27.08 62.4396 27.08 62.2198C27.08 61.7462 26.5674 61.4502 26.1573 61.687C25.9669 61.7969 25.8496 62 25.8496 62.2198Z" fill="#C8FFA1" stroke="#8CFFE4" stroke-width="1.08357" stroke-linecap="round" stroke-linejoin="round"/>
<path id="Vector_58" d="M26.4646 52.3814H29.5393L34.4582 47.4625" stroke="#8CFFE4" stroke-width="1.08357" stroke-linecap="round" stroke-linejoin="round"/>
<path id="Vector_59" d="M25.8496 52.3818C25.8496 52.8554 26.3623 53.1514 26.7724 52.9146C26.9628 52.8047 27.08 52.6016 27.08 52.3818C27.08 51.9083 26.5674 51.6123 26.1573 51.8491C25.9669 51.9589 25.8496 52.162 25.8496 52.3818Z" fill="#C8FFA1" stroke="#8CFFE4" stroke-width="1.08357" stroke-linecap="round" stroke-linejoin="round"/>
<path id="Vector_60" d="M30.5869 54.2542C31.2698 56.6357 33.4186 58.299 35.8952 58.3633H67.5724C70.2327 58.2426 72.2945 55.9934 72.1838 53.3327C72.3003 50.8438 71.0091 48.5004 68.8431 47.269C68.5394 43.0496 65.7061 39.7414 62.2498 39.7414C62.0168 39.7414 61.7839 39.7565 61.5529 39.7868C59.7791 36.2759 56.246 33.9983 52.3159 33.8322C48.8184 33.9454 45.6046 35.785 43.7357 38.7433C43.0685 38.2513 42.2647 37.9791 41.4359 37.9645C39.1633 38.1558 37.3117 39.8674 36.9426 42.1177C33.1334 42.2748 30.0821 46.1711 30.0821 50.9667C30.0789 52.082 30.2491 53.1911 30.5869 54.2542Z" fill="white"/>
<path id="Vector_61" d="M67.572 55.6393H35.8948C33.4182 55.5751 31.2694 53.9117 30.5865 51.5303C30.386 50.9039 30.2452 50.2598 30.166 49.6068C30.1095 50.0589 30.0813 50.514 30.0816 50.9696C30.0787 52.0841 30.249 53.1923 30.5865 54.2545C31.2694 56.636 33.4182 58.2993 35.8948 58.3636H67.572C70.2323 58.243 72.2941 55.9938 72.1834 53.3331C72.1838 52.8314 72.1374 52.3308 72.0446 51.8379C71.6226 53.9929 69.7669 55.5701 67.572 55.6393Z" fill="#CCFFF3"/>
<path id="Vector_62" d="M48.7 58.3648C49.8966 55.9247 50.2575 53.4977 54.2081 52.1505" stroke="#45413C" stroke-width="1.08357" stroke-linecap="round" stroke-linejoin="round"/>
<path id="Vector_63" d="M41.0955 58.3647C42.286 57.1695 42.9219 55.5307 42.849 53.8455" stroke="#45413C" stroke-width="1.08357" stroke-linecap="round" stroke-linejoin="round"/>
<path id="Vector_64" d="M40.4897 52.7421C41.3945 53.5569 42.5845 53.9814 43.8006 53.9232C45.7721 53.9232 47.1128 51.8063 48.0577 49.1963C48.5672 47.7227 49.5698 46.4702 50.8961 45.6505" stroke="#45413C" stroke-width="1.08357" stroke-linecap="round" stroke-linejoin="round"/>
<path id="Vector_65" d="M61.553 39.7887C58.5565 40.1417 55.9038 41.8919 54.4004 44.5078" stroke="#45413C" stroke-width="1.08357" stroke-linecap="round" stroke-linejoin="round"/>
<path id="Vector_66" d="M57.4075 58.3552C56.3716 56.0809 56.7902 53.4082 58.4718 51.5595" stroke="#45413C" stroke-width="1.08357" stroke-linecap="round" stroke-linejoin="round"/>
<path id="Vector_67" d="M68.8427 47.2695C66.7173 46.0542 64.0495 46.3562 62.2495 48.0158" stroke="#45413C" stroke-width="1.08357" stroke-linecap="round" stroke-linejoin="round"/>
<path id="Vector_68" d="M57.9927 46.8331C57.31 48.3825 57.4893 50.1764 58.4651 51.56C59.3891 53.2365 61.3975 53.9892 63.1959 53.3329C65.9941 52.2946 66.9805 53.3329 66.9805 53.3329" stroke="#45413C" stroke-width="1.08357" stroke-linecap="round" stroke-linejoin="round"/>
<path id="Vector_69" d="M36.9412 42.1212C38.002 41.9083 39.1041 42.1148 40.0158 42.6973" stroke="#45413C" stroke-width="1.08357" stroke-linecap="round" stroke-linejoin="round"/>
<path id="Vector_70" d="M43.7355 38.7446C46.4027 40.2592 46.5208 44.7641 44.2741 46.8329C40.9724 49.8712 38.2416 45.7946 35.7588 49.7869" stroke="#45413C" stroke-width="1.08357" stroke-linecap="round" stroke-linejoin="round"/>
<path id="Vector_71" d="M54.2078 48.6059C54.7269 47.0731 54.7269 45.412 54.2078 43.879C53.6213 41.8271 51.5783 40.5509 49.4771 40.9237" stroke="#45413C" stroke-width="1.08357" stroke-linecap="round" stroke-linejoin="round"/>
<path id="Vector_72" d="M30.5869 54.2542C31.2698 56.6357 33.4186 58.299 35.8952 58.3633H67.5724C70.2327 58.2426 72.2945 55.9934 72.1838 53.3327C72.3003 50.8438 71.0091 48.5004 68.8431 47.269C68.5394 43.0496 65.7061 39.7414 62.2498 39.7414C62.0168 39.7414 61.7839 39.7565 61.5529 39.7868C59.7791 36.2759 56.246 33.9983 52.3159 33.8322C48.8184 33.9454 45.6046 35.785 43.7357 38.7433C43.0685 38.2513 42.2647 37.9791 41.4359 37.9645C39.1633 38.1558 37.3117 39.8674 36.9426 42.1177C33.1334 42.2748 30.0821 46.1711 30.0821 50.9667C30.0789 52.082 30.2491 53.1911 30.5869 54.2542Z" stroke="#45413C" stroke-width="1.08357" stroke-linejoin="round"/>
</g>
</svg>
